<svg xmlns="http://www.w3.org/2000/svg" viewBox="0 0 900 620" fill="none" role="img" aria-hidden="true">
  <defs>
    <linearGradient id="g" x1="80" y1="120" x2="830" y2="520" gradientUnits="userSpaceOnUse">
      <stop stop-color="#3857a6" stop-opacity=".30"/><stop offset=".5" stop-color="#7181ad" stop-opacity=".15"/><stop offset="1" stop-color="#3857a6" stop-opacity=".28"/>
    </linearGradient>
  </defs>
  <g stroke="url(#g)" stroke-width="1.05" vector-effect="non-scaling-stroke">
    <path d="M94 340C178 264 241 258 318 327S463 415 548 274 699 169 810 252"/>
    <path d="M91 354C177 278 242 272 320 341S466 430 551 289 703 184 814 267"/>
    <path d="M88 368C176 292 243 286 322 355S469 445 554 304 707 199 818 282"/>
    <path d="M85 382C175 306 244 300 324 369S472 460 557 319 711 214 822 297"/>
    <path d="M82 396C174 320 245 314 326 383S475 475 560 334 715 229 826 312"/>
    <path d="M79 410C173 334 246 328 328 397S478 490 563 349 719 244 830 327"/>
    <path d="M76 424C172 348 247 342 330 411S481 505 566 364 723 259 834 342"/>
    <path d="M73 438C171 362 248 356 332 425S484 520 569 379 727 274 838 357"/>
    <path d="M70 452C170 376 249 370 334 439S487 535 572 394 731 289 842 372"/>
    <path d="M67 466C169 390 250 384 336 453S490 550 575 409 735 304 846 387"/>
    <path d="M64 480C168 404 251 398 338 467S493 565 578 424 739 319 850 402"/>
    <path d="M61 494C167 418 252 412 340 481S496 580 581 439 743 334 854 417"/>
    <path d="M114 290C122 332 130 381 141 455"/><path d="M165 265C177 322 188 384 202 479"/><path d="M221 260C237 319 252 391 268 500"/><path d="M281 283C302 337 321 411 338 518"/><path d="M343 334C366 371 387 425 405 528"/><path d="M405 390C429 405 451 427 472 502"/><path d="M468 405C493 383 516 336 540 288"/><path d="M532 349C559 290 585 226 610 193"/><path d="M598 250C623 209 649 186 676 190"/><path d="M665 195C692 196 720 220 748 253"/><path d="M730 223C756 246 784 282 812 320"/>
  </g>
  <g fill="#3657a2" fill-opacity=".62"><circle cx="103" cy="323" r="3.2"/><circle cx="252" cy="250" r="3.2"/><circle cx="491" cy="397" r="3.2"/><circle cx="681" cy="185" r="3.2"/><circle cx="823" cy="316" r="3.2"/></g>
</svg>
