<svg xmlns="http://www.w3.org/2000/svg" viewBox="0 0 760 420" fill="none" role="img" aria-hidden="true">
  <g stroke="#aeb7ca" stroke-width="1.15" opacity=".62">
    <path d="M48 248 C142 194 204 216 272 294 C340 372 408 358 478 228 C548 98 622 98 710 168"/>
    <path d="M55 261 C148 207 210 229 278 307 C346 385 414 371 484 241 C554 111 628 111 716 181"/>
    <path d="M62 274 C155 220 217 242 285 320 C353 398 421 384 491 254 C561 124 635 124 723 194"/>
    <path d="M69 287 C162 233 224 255 292 333 C360 411 428 397 498 267 C568 137 642 137 730 207"/>
    <path d="M42 235 C135 181 197 203 265 281 C333 359 401 345 471 215 C541 85 615 85 703 155"/>
    <path d="M35 222 C128 168 190 190 258 268 C326 346 394 332 464 202 C534 72 608 72 696 142"/>
    <path d="M28 209 C121 155 183 177 251 255 C319 333 387 319 457 189 C527 59 601 59 689 129"/>
  </g>
  <g stroke="#c8cedb" stroke-width=".95" opacity=".48">
    <path d="M100 190 C105 222 111 255 118 301"/>
    <path d="M150 176 C160 216 170 259 181 320"/>
    <path d="M205 190 C220 229 234 276 247 340"/>
    <path d="M262 246 C282 278 300 316 316 362"/>
    <path d="M323 318 C344 325 367 326 391 309"/>
    <path d="M385 326 C408 298 430 254 454 210"/>
    <path d="M450 246 C474 192 498 135 522 101"/>
    <path d="M520 151 C544 105 569 79 594 78"/>
    <path d="M590 91 C615 86 641 100 667 129"/>
  </g>
  <g fill="#62729a" opacity=".85">
    <circle cx="56" cy="197" r="2.4"/>
    <circle cx="706" cy="118" r="2.4"/>
    <circle cx="699" cy="315" r="2.4"/>
  </g>
</svg>
